<?xml version="1.0" standalone="no"?>
<!DOCTYPE svg PUBLIC "-//W3C//DTD SVG 20010904//EN"
 "http://www.w3.org/TR/2001/REC-SVG-20010904/DTD/svg10.dtd">
<svg version="1.0" xmlns="http://www.w3.org/2000/svg"
 width="300.000000pt" height="300.000000pt" viewBox="0 0 300.000000 300.000000"
 preserveAspectRatio="xMidYMid meet">
<metadata>
Created by potrace 1.10, written by Peter Selinger 2001-2011
</metadata>
<g transform="translate(0.000000,300.000000) scale(0.100000,-0.100000)"
fill="#000000" stroke="none">
<path d="M1235 2836 c-477 -101 -856 -439 -1006 -898 -88 -270 -89 -548 -4
-818 32 -99 75 -198 106 -241 37 -53 31 -26 -20 82 -139 294 -166 581 -84 894
124 476 493 835 983 955 122 31 371 38 500 16 188 -33 384 -114 540 -224 88
-61 243 -220 308 -315 107 -155 186 -348 218 -527 20 -116 14 -386 -10 -495
-90 -401 -343 -733 -695 -914 -53 -27 -150 -67 -216 -87 l-120 -38 -225 0
c-215 0 -229 1 -325 27 -129 36 -296 117 -410 200 -49 36 -92 60 -94 54 -2 -6
5 -17 15 -25 176 -127 263 -175 403 -222 51 -17 127 -38 169 -46 92 -18 357
-20 455 -4 166 26 394 125 541 234 83 61 222 195 258 249 13 19 43 63 67 98
144 211 222 474 221 750 0 229 -37 384 -140 594 -155 314 -418 545 -752 659
-145 49 -254 66 -427 65 -112 0 -171 -6 -256 -23z"/>
<path d="M1265 2760 c-241 -48 -457 -159 -635 -326 -105 -100 -184 -205 -252
-340 -179 -352 -190 -717 -33 -1082 45 -104 46 -109 40 -178 -6 -59 -4 -77 13
-110 10 -21 22 -55 26 -75 3 -20 16 -45 29 -57 27 -25 114 -42 213 -42 73 0
73 0 146 -55 137 -103 323 -181 499 -210 395 -64 784 72 1071 374 174 182 274
371 329 622 31 136 33 369 5 499 -97 453 -417 809 -847 945 -183 57 -423 72
-604 35z m415 -31 c19 -5 49 -9 67 -9 17 0 34 -4 37 -9 3 -5 26 -12 51 -15 25
-4 45 -11 45 -17 0 -5 11 -9 24 -9 31 0 223 -99 306 -158 235 -168 416 -457
474 -757 15 -79 17 -355 2 -415 -3 -14 -11 -47 -17 -75 -17 -73 -46 -171 -57
-192 -6 -10 -24 -47 -42 -83 -59 -123 -110 -200 -180 -271 -14 -14 -42 -45
-64 -68 -37 -40 -130 -113 -227 -179 -44 -29 -167 -90 -199 -98 -8 -2 -35 -10
-59 -19 -59 -21 -173 -42 -273 -51 -104 -8 -297 17 -406 52 -90 30 -255 110
-286 139 -11 11 -38 29 -59 40 l-38 20 43 8 c24 5 53 18 64 28 21 20 21 20 27
-2 6 -21 7 -21 44 10 l38 31 10 -77 c6 -43 10 -80 9 -81 -1 -2 -35 17 -74 43
-39 26 -74 44 -77 42 -9 -10 17 -46 44 -60 16 -8 40 -21 56 -29 15 -8 38 -13
50 -11 l24 5 -1 186 c-1 103 2 252 6 332 4 80 4 129 0 110 l-8 -35 -6 42 c-3
23 -13 55 -21 71 -13 26 -12 32 2 50 17 22 72 52 94 52 8 0 22 -9 31 -19 13
-15 15 -24 7 -38 -20 -39 -51 -222 -63 -373 -11 -150 -2 -389 15 -407 15 -15
17 9 6 108 -12 112 -7 350 11 459 15 92 41 199 50 205 4 3 20 -11 34 -30 l27
-35 -12 -192 c-12 -201 -7 -398 12 -505 13 -72 35 -89 25 -19 -23 149 -32 444
-17 511 7 29 7 29 15 -14 5 -24 17 -52 27 -62 19 -19 19 -19 -3 -19 -17 0 -19
-3 -10 -12 8 -8 15 -8 26 2 9 7 13 16 11 20 -3 5 8 30 25 56 l30 47 19 -44
c11 -24 35 -59 54 -77 l34 -33 -19 -37 c-17 -33 -19 -55 -16 -214 2 -134 6
-180 17 -190 11 -11 13 1 8 77 -4 50 -3 143 1 207 8 110 10 120 38 155 41 51
54 77 54 107 0 46 69 63 88 22 9 -21 7 -30 -17 -63 -15 -21 -45 -51 -67 -67
-54 -40 -74 -66 -74 -98 0 -38 37 -49 62 -18 16 20 17 25 4 44 -13 20 -9 26
54 93 l68 71 18 -34 c10 -19 22 -34 26 -34 15 0 43 55 70 135 37 109 36 79
-11 -275 -22 -162 -38 -297 -35 -299 12 -12 20 26 45 217 40 295 59 488 59
595 0 83 3 95 25 122 l24 30 1 -60 c1 -54 3 -57 12 -31 8 20 7 40 -1 68 -13
41 -8 59 9 42 51 -51 63 -453 21 -762 -12 -96 -20 -176 -17 -179 9 -9 13 12
35 172 34 248 44 412 32 549 -6 67 -16 136 -22 154 -6 18 -9 35 -7 38 7 6 105
-29 168 -61 53 -27 53 -27 32 -44 -36 -28 -83 -166 -81 -239 0 -15 9 10 19 56
23 98 65 182 92 182 22 0 95 -109 188 -278 l61 -113 -43 -56 c-23 -31 -73 -83
-110 -117 -78 -69 -89 -92 -21 -44 61 44 163 149 188 196 12 20 33 50 48 66
77 83 173 365 186 550 8 121 -5 336 -23 364 -3 5 -8 24 -11 42 -27 151 -166
400 -296 530 -52 51 -120 113 -149 133 -104 72 -175 110 -290 154 -56 22 -106
35 -220 59 -69 15 -329 7 -425 -12 -105 -21 -336 -115 -373 -151 -7 -7 -24
-16 -38 -19 -13 -3 -24 -9 -24 -13 0 -4 -21 -23 -47 -41 -27 -19 -84 -71 -128
-115 -289 -293 -410 -733 -310 -1129 15 -59 44 -126 67 -158 11 -15 9 -21 -8
-38 l-21 -21 -26 78 c-59 175 -72 259 -71 433 2 362 174 726 438 927 33 26 63
50 66 53 12 14 68 47 174 104 71 39 269 108 296 104 8 -1 26 2 40 7 65 21 313
24 390 4z m-70 -39 c391 -41 724 -268 902 -616 99 -192 133 -351 125 -579 -8
-222 -50 -379 -146 -544 l-48 -83 -51 93 c-63 118 -168 279 -182 279 -5 0 -10
7 -10 14 0 17 -99 67 -210 106 -83 29 -84 32 -56 105 9 25 15 74 16 133 0 91
0 92 24 92 57 0 145 141 154 245 6 79 -1 105 -35 139 -20 21 -35 27 -56 23
-25 -3 -28 -1 -23 17 17 73 17 101 0 166 -12 47 -23 70 -32 70 -12 0 -12 3 2
19 16 18 15 19 -16 38 -18 10 -41 22 -50 26 -10 3 -15 12 -12 21 6 16 -46 59
-85 71 -13 4 -45 22 -71 41 -53 38 -124 70 -186 84 -66 15 -136 -3 -281 -75
-100 -50 -138 -64 -158 -59 -20 5 -24 3 -19 -10 4 -11 1 -16 -10 -16 -26 0
-18 -17 14 -30 l31 -13 -41 -34 c-78 -67 -104 -167 -77 -296 12 -62 12 -67 -2
-61 -41 17 -60 15 -84 -8 -51 -51 -53 -159 -6 -268 19 -45 69 -102 98 -111 8
-3 9 -19 1 -59 -6 -30 -8 -77 -4 -105 7 -54 39 -148 60 -180 13 -18 10 -21
-46 -47 -33 -15 -60 -33 -61 -40 0 -7 -13 -23 -29 -35 -41 -33 -84 -22 -118
31 -26 39 -27 47 -27 166 0 111 -3 130 -24 173 -44 90 -140 137 -203 100 -61
-35 -59 -88 7 -273 22 -60 26 -82 19 -110 -9 -33 -12 -35 -62 -42 -73 -8 -102
-36 -102 -97 0 -69 -15 -83 -35 -35 -91 217 -97 518 -14 774 139 431 545 758
994 800 117 11 121 11 225 0z m64 -109 c72 -35 156 -101 156 -120 0 -4 -28 6
-62 23 -84 40 -185 41 -269 4 -49 -22 -59 -24 -80 -12 -43 23 -93 26 -167 9
-73 -17 -163 -17 -113 0 13 4 65 28 115 53 216 106 281 113 420 43z m184 -97
c23 -16 29 -39 13 -48 -5 -3 -18 10 -30 29 -22 38 -18 44 17 19z m-105 -14
c30 -11 62 -29 72 -40 12 -13 25 -18 40 -14 25 6 95 -20 95 -35 0 -6 -10 -11
-22 -11 -21 -1 -21 -2 -5 -11 31 -18 57 -84 57 -147 0 -63 -23 -157 -42 -168
-15 -9 -68 50 -68 76 0 12 -7 37 -15 56 -13 32 -13 41 1 84 15 46 15 50 -6 99
-13 28 -26 51 -31 51 -13 0 -11 -9 12 -57 19 -40 20 -46 6 -92 -13 -45 -13
-54 4 -103 10 -29 18 -73 19 -98 0 -25 7 -80 15 -122 13 -67 13 -82 0 -126 -9
-28 -23 -60 -34 -73 l-18 -22 -5 26 c-3 15 -2 27 1 27 3 0 12 9 19 20 12 20
12 20 -10 7 -30 -19 -106 -28 -115 -15 -3 7 -1 8 5 4 7 -4 12 -2 12 3 0 6 -8
11 -18 11 -11 0 -47 14 -81 31 -38 19 -72 29 -87 26 -19 -3 -24 0 -25 17 0 11
-3 38 -5 60 -6 51 21 143 46 156 24 13 26 30 3 30 -9 0 -14 -3 -11 -6 3 -3 -4
-16 -17 -28 -18 -18 -25 -39 -30 -98 -6 -66 0 -158 10 -158 2 0 15 5 29 11 32
15 56 -2 56 -38 0 -19 -4 -24 -16 -19 -9 3 -26 -5 -42 -21 -15 -15 -31 -27
-35 -25 -5 1 -6 -2 -2 -8 4 -6 -9 -17 -29 -25 -31 -13 -40 -13 -70 -1 -34 14
-66 50 -66 74 0 8 15 49 34 91 56 126 57 212 2 237 -19 9 -23 9 -20 -1 4 -8
-3 -11 -18 -8 -82 14 -94 13 -124 -5 -38 -24 -68 -84 -59 -119 4 -19 10 -23
23 -18 37 16 117 17 152 2 l35 -15 -44 -20 c-40 -18 -47 -19 -87 -5 -24 8 -49
13 -56 11 -7 -3 17 -13 53 -22 62 -17 68 -17 98 -2 46 24 56 57 30 101 -26 43
-69 68 -104 59 -29 -7 -75 -58 -75 -82 0 -12 -3 -13 -11 -5 -15 15 3 62 37 94
44 41 144 24 170 -30 11 -21 13 -22 17 -5 3 12 5 8 6 -12 2 -66 -26 -128 -79
-173 -27 -23 -64 -47 -82 -53 -18 -6 -43 -20 -55 -30 -17 -16 -25 -18 -41 -9
-28 15 -32 14 -32 -10 0 -13 -4 -18 -12 -13 -8 5 -9 2 -4 -12 5 -10 17 -50 28
-89 21 -72 67 -169 76 -160 3 3 -4 22 -15 43 -22 39 -37 86 -47 140 l-6 34 32
-20 c26 -17 34 -32 49 -91 20 -79 55 -145 105 -198 31 -33 32 -37 19 -56 -8
-12 -15 -28 -15 -37 0 -8 20 15 45 52 51 76 61 83 130 93 28 4 57 12 65 17 12
7 10 8 -5 4 -24 -6 -138 -20 -145 -19 -3 1 -14 4 -25 8 -16 5 -16 4 3 -7 l22
-14 -29 -28 -29 -27 -22 33 c-13 18 -28 38 -35 43 -36 30 -86 195 -59 195 19
0 32 -16 38 -47 11 -48 73 -109 126 -123 60 -17 149 0 203 37 45 31 97 105 97
139 0 12 7 25 16 28 15 6 16 0 11 -46 -10 -84 -34 -139 -89 -207 l-51 -64 -22
26 c-39 50 -34 27 7 -33 42 -60 61 -74 36 -26 -13 25 -12 29 33 75 62 65 97
139 105 226 5 54 11 74 28 88 21 17 21 17 2 32 -19 15 -19 15 2 15 45 0 41
-116 -8 -219 -35 -74 -21 -72 16 2 15 29 28 75 32 109 3 43 10 61 23 69 10 5
25 21 32 35 13 25 14 24 25 -44 14 -84 15 -188 2 -157 -6 15 -9 5 -10 -35 0
-31 -9 -73 -20 -98 -22 -48 -70 -115 -78 -108 -3 3 -14 -13 -25 -35 -21 -43
-113 -147 -101 -114 4 11 9 36 10 55 3 30 2 31 -5 10 -16 -50 -50 -106 -81
-135 -32 -30 -32 -30 -25 -5 5 20 2 19 -18 -11 -27 -38 -67 -69 -89 -69 -15 0
-88 67 -88 81 0 5 -5 9 -10 9 -7 0 -7 -7 0 -21 20 -37 1 -33 -37 7 -53 56 -86
133 -77 181 5 30 4 36 -6 26 -12 -11 -10 -85 5 -133 6 -19 0 -15 -23 16 -41
57 -63 99 -84 169 l-18 60 4 -55 4 -55 -31 65 c-29 58 -32 75 -32 153 0 75 -2
85 -14 70 -12 -17 -13 -17 -7 2 14 49 37 151 37 160 -1 6 -4 35 -7 66 -4 38
-1 78 10 121 9 35 16 90 16 122 0 105 64 186 146 186 45 0 106 -20 118 -38 3
-5 -2 -20 -12 -32 -16 -20 -20 -20 -63 -9 -55 15 -83 9 -138 -31 -52 -38 -49
-51 4 -16 49 33 95 41 151 26 51 -15 68 -6 79 41 6 24 2 29 -46 53 -75 37
-135 32 -185 -15 -21 -20 -21 -20 -27 2 -7 27 8 100 27 138 20 36 85 98 119
110 38 14 75 13 112 -4 29 -13 28 -13 -30 -10 -33 1 -49 1 -35 -1 14 -3 44 -9
68 -14 35 -9 46 -8 59 5 8 9 22 14 30 11 8 -4 11 -1 7 5 -4 8 1 9 16 4 14 -5
20 -3 16 3 -17 28 154 29 227 2z m-565 -47 c-49 -52 -72 -112 -74 -188 -1 -38
-6 -83 -13 -98 -6 -16 -11 -41 -11 -56 0 -15 -6 -36 -14 -46 -12 -17 -14 -10
-21 62 -6 70 -4 88 14 129 11 27 15 41 8 31 -34 -52 -38 -54 -31 -12 14 84 53
145 119 186 43 27 53 23 23 -8z m740 -424 c-1 -16 -5 -29 -11 -29 -6 0 -6 -5
0 -12 19 -24 24 -83 8 -103 -13 -19 -14 -16 -15 30 0 28 -7 77 -15 110 -19 80
-19 82 9 56 16 -15 24 -34 24 -52z m138 63 c22 -14 34 -52 34 -104 0 -91 -84
-238 -135 -238 -33 0 -42 50 -22 127 13 52 15 55 22 31 4 -14 2 -35 -4 -46
-14 -25 -14 -32 -1 -32 16 0 28 62 18 92 -8 21 -5 33 9 52 32 44 63 45 63 0 0
-13 5 -24 10 -24 6 0 10 9 10 19 0 32 -19 71 -34 71 -15 0 -76 -64 -76 -80 0
-6 -4 -10 -10 -10 -5 0 -10 20 -10 44 0 59 37 106 83 106 18 0 37 -4 43 -8z
m-725 -43 c29 -31 38 -59 19 -59 -6 0 -15 11 -19 24 -17 42 -58 47 -97 11 -48
-44 -61 -27 -18 24 35 42 76 42 115 0z m-313 4 c23 -20 42 -143 22 -143 -5 0
-10 8 -10 18 0 29 -39 84 -57 80 -21 -4 -36 -59 -24 -90 8 -19 10 -15 10 25 1
54 12 58 43 16 17 -23 17 -27 3 -56 -18 -36 -8 -75 25 -95 21 -14 28 -62 10
-73 -40 -25 -122 117 -123 212 -1 103 47 153 101 106z m20 -199 c2 -37 1 -38
-13 -20 -18 24 -20 69 -2 64 6 -3 13 -22 15 -44z m312 17 c0 -6 -4 -13 -10
-16 -5 -3 -10 -15 -10 -26 0 -10 -7 -19 -15 -19 -17 0 -20 23 -5 51 11 19 40
27 40 10z m318 -60 c20 -11 52 -25 71 -33 l34 -14 -52 -33 c-28 -19 -63 -33
-76 -33 -14 0 -25 -4 -25 -9 0 -5 -7 -6 -15 -3 -8 4 -15 1 -15 -6 0 -7 -7 -10
-15 -7 -8 4 -17 2 -20 -3 -10 -15 -58 -12 -83 6 -21 15 -25 15 -41 0 -36 -33
-158 -14 -266 41 l-38 20 31 22 c31 22 102 55 107 49 1 -2 7 -12 14 -23 11
-19 12 -19 6 3 -7 23 -6 23 19 7 14 -9 28 -24 31 -34 8 -27 59 -51 109 -51 38
0 52 6 85 35 21 19 43 35 49 35 6 0 19 11 29 25 10 13 19 25 21 25 2 0 20 -9
40 -19z m-1021 -132 c64 -24 112 -99 114 -176 1 -27 1 -81 0 -121 -2 -59 2
-81 19 -108 11 -20 20 -37 20 -39 0 -1 -33 5 -72 16 -40 10 -83 19 -96 19 -20
0 -21 2 -11 22 17 32 5 112 -30 201 -36 91 -40 148 -11 177 23 23 29 24 67 9z
m997 -46 c-17 -12 -19 -12 -23 3 -2 10 5 24 15 31 17 12 19 12 23 -3 2 -10 -5
-24 -15 -31z m-136 9 c17 -2 32 -9 32 -15 0 -6 6 -4 13 5 6 8 22 18 35 21 18
4 22 1 22 -19 0 -16 -6 -24 -17 -25 -10 0 -29 -3 -43 -7 -14 -3 -56 -6 -95 -6
-65 -1 -70 1 -73 22 -3 18 1 22 22 22 14 0 28 5 31 11 4 6 14 7 24 3 9 -4 31
-9 49 -12z m-138 -23 c0 -15 -5 -20 -22 -17 -34 5 -37 38 -4 38 20 0 26 -5 26
-21z m224 -52 c16 -12 14 -14 -21 -31 -21 -10 -69 -21 -108 -23 -68 -5 -69 -4
-47 12 13 9 29 14 37 11 8 -3 15 -1 15 4 0 14 51 39 81 40 14 0 33 -6 43 -13z
m192 -369 c-3 -46 -11 -101 -16 -123 -20 -74 -62 -185 -71 -185 -5 0 -20 22
-33 49 -32 63 -73 111 -95 111 -22 0 -61 -36 -62 -58 -1 -9 0 -30 0 -47 1 -16
-4 -38 -12 -49 -13 -17 -16 -14 -50 47 -45 79 -46 90 -11 76 33 -12 53 -6 112
34 95 62 185 145 219 200 10 15 19 27 22 27 2 0 1 -37 -3 -82z m-1030 22 c165
-43 170 -46 166 -100 -4 -61 -22 -73 -94 -66 -52 5 -186 30 -233 43 -18 5 -18
3 -5 -10 14 -15 198 -53 285 -59 38 -3 40 -5 43 -40 2 -20 -2 -46 -7 -57 -16
-29 -104 -36 -230 -17 -127 19 -144 20 -111 2 34 -18 197 -39 273 -34 l62 3
-3 -45 c-2 -24 -8 -48 -14 -51 -34 -21 -130 -27 -230 -14 -56 7 -105 11 -108
9 -11 -12 30 -23 123 -34 76 -10 112 -10 149 -1 27 6 53 11 58 11 12 0 0 -81
-16 -107 -20 -32 -106 -47 -241 -40 -135 6 -165 18 -173 67 -4 20 -16 57 -29
83 -21 43 -22 51 -10 102 9 42 9 61 1 80 -21 46 -14 88 20 133 27 35 32 49 29
86 -2 37 2 47 25 65 39 31 126 28 270 -9z m238 -57 c26 -75 29 -138 12 -282
l-15 -135 -40 -40 -40 -40 2 55 c1 29 6 60 11 68 10 15 17 86 21 201 1 36 5
86 10 113 5 33 4 52 -5 62 -10 12 -10 18 0 30 20 24 27 18 44 -32z m370 -111
c34 -17 36 -20 17 -25 -11 -3 -19 -1 -15 4 3 5 -1 9 -9 9 -8 0 -30 -30 -50
-67 -22 -43 -38 -62 -41 -53 -18 53 -26 104 -26 165 l0 69 43 -42 c23 -23 60
-50 81 -60z m226 -40 c0 -4 -13 -13 -30 -19 -23 -9 -30 -8 -30 1 0 7 3 16 7
19 9 10 53 9 53 -1z m-200 -22 c11 -11 20 -24 20 -29 0 -5 15 -30 34 -55 28
-35 32 -47 22 -55 -10 -9 -23 1 -53 41 -43 57 -63 90 -63 107 0 17 18 13 40
-9z m130 -239 c0 -20 -13 -41 -25 -41 -18 0 -28 17 -21 35 6 16 46 21 46 6z
m-532 -66 c-1 -1 -14 -6 -28 -10 l-25 -7 25 27 c21 22 26 24 28 10 2 -9 2 -18
0 -20z"/>
<path d="M2040 1260 c58 -30 75 -36 66 -21 -7 11 -92 51 -108 51 -7 -1 12 -14
42 -30z"/>
<path d="M2160 1184 c0 -3 18 -26 39 -52 37 -45 151 -234 151 -251 0 -5 7 -15
17 -22 26 -22 -97 198 -162 289 -27 37 -45 52 -45 36z"/>
<path d="M2070 775 c0 -14 4 -25 8 -25 5 0 30 -20 55 -45 26 -25 53 -45 60
-45 6 0 -2 10 -20 22 -17 13 -46 44 -64 70 -17 27 -34 48 -36 48 -1 0 -3 -11
-3 -25z"/>
<path d="M2030 748 c0 -20 5 -49 10 -64 17 -43 4 -38 -19 8 -12 24 -19 32 -15
18 4 -14 15 -38 26 -53 17 -24 19 -37 13 -100 -7 -68 -6 -71 10 -56 10 10 20
38 22 63 6 53 14 57 38 20 17 -26 17 -27 -11 -51 l-29 -24 24 3 c15 2 32 15
43 33 l17 31 -54 77 c-30 43 -55 83 -55 90 0 6 -5 19 -10 27 -7 11 -10 6 -10
-22z"/>
<path d="M1460 531 c-21 -41 21 -81 58 -55 38 26 22 74 -25 74 -12 0 -27 -9
-33 -19z m56 -6 c8 -20 -13 -45 -32 -38 -14 5 -19 34 -7 46 11 12 33 7 39 -8z"/>
<path d="M1280 506 c26 -29 78 -61 87 -53 2 3 -5 8 -17 12 -12 4 -38 21 -58
38 -35 29 -35 30 -12 3z"/>
<path d="M1555 420 l-70 -6 65 -2 c36 -1 72 3 80 8 8 5 11 9 5 8 -5 -1 -41 -4
-80 -8z"/>
<path d="M1310 360 c14 -4 43 -8 65 -8 l40 0 -40 9 c-22 4 -51 8 -65 7 l-25 0
25 -8z"/>
<path d="M1593 361 c-39 -3 -74 -9 -78 -13 -9 -9 144 3 170 13 20 8 20 8 0 7
-11 -1 -52 -4 -92 -7z"/>
<path d="M1237 2412 c-26 -29 -46 -85 -40 -115 5 -27 17 -35 27 -18 11 18 75
21 137 6 86 -20 142 -19 217 5 79 25 108 25 155 1 20 -10 37 -15 37 -10 0 16
-59 39 -103 39 -24 0 -70 -9 -102 -20 -70 -24 -100 -25 -200 -4 -71 15 -97 14
-141 -3 -15 -6 -16 -1 -11 37 3 24 15 56 27 72 23 31 22 37 -3 10z"/>
<path d="M1500 2328 c-25 -5 -74 -7 -110 -4 -42 3 -56 2 -40 -4 37 -12 138
-10 195 5 58 15 22 17 -45 3z"/>
<path d="M1573 2246 c-50 -24 -53 -27 -53 -63 0 -61 10 -69 62 -50 45 18 118
23 118 9 0 -4 9 -8 20 -9 11 -1 36 -18 55 -39 19 -20 38 -34 42 -30 3 3 -4 17
-16 30 l-22 23 25 -4 c31 -6 33 6 7 62 -19 43 -51 76 -79 83 -62 15 -109 12
-159 -12z m172 -16 c28 -17 81 -97 71 -107 -2 -2 -23 6 -47 17 -24 11 -52 20
-61 20 -10 0 -18 5 -18 10 0 6 8 10 17 10 9 0 14 2 11 5 -6 6 -94 -13 -120
-26 -26 -13 -45 -11 -52 7 -12 31 -5 44 32 63 50 27 125 27 167 1z"/>
<path d="M1444 2146 c4 -12 0 -24 -11 -33 -16 -13 -16 -13 6 -3 17 9 26 9 34
1 6 -6 20 -11 32 -11 20 1 20 1 0 12 -11 6 -31 20 -44 32 -22 19 -24 19 -17 2z"/>
<path d="M1188 2113 c-16 -4 -53 -51 -46 -58 2 -2 20 12 40 31 21 19 34 33 30
33 -4 -1 -15 -3 -24 -6z"/>
<path d="M1619 2107 c-14 -11 -39 -49 -39 -60 0 -3 16 11 35 30 30 30 40 35
67 29 18 -3 45 -19 62 -34 l29 -27 -17 26 c-28 45 -101 64 -137 36z"/>
<path d="M1641 2066 c-28 -15 -50 -52 -51 -83 0 -12 -5 -25 -11 -28 -16 -10
17 -42 57 -55 28 -9 41 -8 80 9 26 12 52 21 60 21 7 0 16 5 19 10 8 13 -43 2
-62 -12 -17 -14 -97 -12 -125 3 -23 12 -22 13 22 32 38 17 51 18 93 8 62 -14
94 -14 103 1 4 7 3 8 -5 4 -20 -13 -48 4 -62 36 -12 28 -61 68 -84 68 -5 -1
-21 -7 -34 -14z m90 -35 c35 -35 39 -62 8 -54 -11 3 -23 12 -26 20 -15 39 -93
34 -93 -6 0 -11 -4 -23 -10 -26 -21 -13 -9 43 15 69 32 35 69 34 106 -3z"/>
<path d="M1350 1250 c-4 -57 1 -84 17 -100 13 -12 14 -12 8 -1 -5 8 -11 42
-15 75 -5 45 -8 52 -10 26z"/>
<path d="M2009 1916 c14 -17 4 -74 -18 -100 -13 -16 -14 -18 -1 -14 34 11 51
128 19 128 -8 0 -8 -4 0 -14z"/>
<path d="M730 1325 c-14 -7 -36 -12 -50 -9 -23 5 -24 4 -7 -9 21 -18 49 -12
73 14 20 22 18 23 -16 4z"/>
<path d="M1715 1099 c-22 -22 -53 -43 -70 -48 -25 -7 -27 -10 -12 -16 18 -8
96 45 124 85 23 33 1 22 -42 -21z"/>
</g>
</svg>
